<svg width="160" height="200" viewBox="0 0 160 200" fill="none" xmlns="http://www.w3.org/2000/svg">
<path d="M95.9574 0L37.9125 26.2626L70.4991 46.4646L95.9574 0Z" fill="#80B479"/>
<path d="M63.3707 200L123.961 150.505L140.727 55.1414L97.994 96.9697L63.3707 200Z" fill="#80B479"/>
<path d="M33.6966 148.313L63.3707 200L97.994 96.9697L74.0632 79.2929L66.9239 91.5L53.7647 114L33.6966 148.313Z" fill="#5D8757"/>
<path d="M140.727 55.1414L95.9574 0L70.4991 46.4646L71.4422 55.1513L71.5571 56.2099L71.9143 59.5L72.9888 69.3965L74.0632 79.2929L97.994 96.9697L140.727 55.1414Z" fill="#8ED585"/>
<path d="M71.9143 59.5L25.4652 67.5L22.7326 76.553L72.9888 69.3965L71.9143 59.5Z" fill="#D9F7D5"/>
<path d="M66.9239 91.5L22.4821 96.9697L26.8571 117L53.7647 114L66.9239 91.5Z" fill="#D9F7D5"/>
<path fill-rule="evenodd" clip-rule="evenodd" d="M27.1253 62L37.9125 26.2626L70.4991 46.4646L71.4422 55.1513L26.8571 62.8887L27.1253 62ZM26.5217 64L25.4652 67.5L71.9143 59.5L71.5571 56.2099L26.5217 64ZM22.7326 76.553L20 85.6061L22.4821 96.9697L66.9239 91.5L74.0632 79.2929L72.9888 69.3965L22.7326 76.553ZM33.6966 148.313L26.8571 117L53.7647 114L33.6966 148.313Z" fill="#AFE4A8"/>
<path d="M26.8571 62.8887L26.5217 64L71.5571 56.2099L71.4422 55.1513L26.8571 62.8887Z" fill="#D9F7D5"/>
</svg>
